<svg data-v-423bf9ae="" xmlns="http://www.w3.org/2000/svg" viewBox="0 0 678 274" class="iconLeftSlogan"><!----><!----><!----><g data-v-423bf9ae="" id="ea726889-dfd9-457f-83be-b0e6d2331e26" fill="black" transform="matrix(5.964215028353327,0,0,5.964215028353327,159.2125270262315,-23.021870328915305)"><path d="M0.35 4.05L0.35 5.38L3.29 5.38L3.29 13.73L4.72 13.73L4.72 5.38L7.63 5.38L7.63 4.05ZM12.46 3.86C10.01 3.86 8.26 5.60 8.26 8.90C8.26 12.19 10.01 13.92 12.46 13.92C14.94 13.92 16.69 12.19 16.69 8.90C16.69 5.60 14.94 3.86 12.46 3.86ZM12.46 5.19C14.13 5.19 15.27 6.45 15.27 8.90C15.27 11.34 14.13 12.60 12.46 12.60C10.81 12.60 9.69 11.34 9.69 8.90C9.69 6.45 10.81 5.19 12.46 5.19ZM18.72 4.05L18.72 13.73L20.15 13.73L20.15 10.01L22.46 10.01L24.78 13.73L26.40 13.73L23.91 9.86C25.16 9.51 25.94 8.57 25.94 7.03C25.94 5.04 24.64 4.05 22.68 4.05ZM20.15 5.35L22.71 5.35C23.83 5.35 24.58 5.89 24.58 7.06C24.58 8.23 23.83 8.78 22.71 8.78L20.15 8.78ZM35.36 6.01C34.75 4.76 33.61 3.86 31.84 3.86C29.33 3.86 27.50 5.61 27.50 8.89C27.50 12.19 29.34 13.92 31.81 13.92C33.33 13.92 34.51 13.26 35.34 11.89L34.27 11.12C33.63 12.15 32.89 12.60 31.84 12.60C30.09 12.60 28.92 11.35 28.92 8.90C28.92 6.45 30.09 5.19 31.84 5.19C33.03 5.19 33.77 5.78 34.33 6.79ZM37.17 4.05L37.17 13.73L38.60 13.73L38.60 9.45L43.04 9.45L43.04 13.73L44.46 13.73L44.46 4.05L43.04 4.05L43.04 8.12L38.60 8.12L38.60 4.05ZM45.82 4.05L48.22 13.73L49.57 13.73L51.79 6.64L53.93 13.73L55.31 13.73L57.75 4.05L56.27 4.05L54.50 11.14L52.49 4.05L51.10 4.05L49.06 11.14L47.33 4.05ZM62.62 3.86C60.17 3.86 58.42 5.60 58.42 8.90C58.42 12.19 60.17 13.92 62.62 13.92C65.10 13.92 66.85 12.19 66.85 8.90C66.85 5.60 65.10 3.86 62.62 3.86ZM62.62 5.19C64.29 5.19 65.44 6.45 65.44 8.90C65.44 11.34 64.29 12.60 62.62 12.60C60.97 12.60 59.85 11.34 59.85 8.90C59.85 6.45 60.97 5.19 62.62 5.19ZM72.83 3.86C70.38 3.86 68.63 5.60 68.63 8.90C68.63 12.19 70.38 13.92 72.83 13.92C75.31 13.92 77.06 12.19 77.06 8.90C77.06 5.60 75.31 3.86 72.83 3.86ZM72.83 5.19C74.49 5.19 75.64 6.45 75.64 8.90C75.64 11.34 74.49 12.60 72.83 12.60C71.18 12.60 70.06 11.34 70.06 8.90C70.06 6.45 71.18 5.19 72.83 5.19ZM79.09 4.05L79.09 13.73L81.93 13.73C84.71 13.73 86.94 11.86 86.94 8.86C86.94 5.88 84.74 4.05 81.93 4.05ZM80.53 5.38L81.94 5.38C83.93 5.38 85.50 6.66 85.50 8.88C85.50 11.10 83.92 12.42 81.94 12.42L80.53 12.42Z"></path></g><!----><g data-v-423bf9ae="" id="121f19b8-8f8c-4fee-8200-47c2a7e4c44a" transform="matrix(1.7444444444444445,0,0,1.7444444444444445,-29.305555555555557,-33.08333333333334)" stroke="none" fill="black"><path d="M97.953 176H17v-4l2-1.051V53h-1.976L17 44l2-1v-5h3v-4l27-5a3 3 0 0 0 3-3h2v-6l1-1h5l1 1v6h1.955A3.046 3.046 0 0 0 66 29a4390.57 4390.57 0 0 1 23.952 4.472c.834.159 1.646.44 2.573.694v3.769l2.772.272v4.612l2.534.558v9.761c-.107.08-.185.19-.276.2-2.178.282-2.18.28-2.18 2.589 0 24.916.208 63.257.625 115.022L98 172l-.047 4zM57 57v112h2V57h-2zm-2-36v5h5v-5h-5zM27 57v10h6V57h-6zm39 0v10h6V57h-6zM27 85v23h22V85H27zm39 0v23h22V85H66zm2 2h18v19H68V87zm-41 27v23h22v-23H27zm2 2h18v19H29v-19zm37-2v23h22v-23H66zm2 2h18v19H68v-19zm-41 27v23h22v-23H27zm2 2h18v19H29v-19zm37-2v23h22v-23H66zm2 2h18v19H68v-19zM35 57v10h6V57h-6zm39 0v10h6V57h-6zm-31 0v10h6V57h-6zm-22-5h73v-8H21v8zm2-6h69v4H23v-4zm59 11v10h6V57h-6zM27 69v10h6V69h-6zm39 0v10h6V69h-6zm-31 0v10h6V69h-6zm39 0v10h6V69h-6zm-31 0v10h6V69h-6zm39 0v10h6V69h-6z"></path></g><!----><g data-v-423bf9ae="" id="491eb28d-c9ae-4b75-ade1-3ad8bfc94aa8" fill="black" transform="matrix(2.4592447760326492,0,0,2.4592447760326492,160.61140789141626,51.8844959547106)"><path d="M0.28 3.72L0.28 3.72L0.28 3.72Q0.28 3.51 0.41 3.51L0.41 3.51L0.41 3.51Q0.45 3.51 0.59 3.52L0.59 3.52L0.59 3.52Q0.73 3.53 0.97 3.53L0.97 3.53L0.97 3.53Q1.25 3.53 2.08 3.52L2.08 3.52L2.08 3.52Q2.91 3.51 3.01 3.51L3.01 3.51L3.01 3.51Q3.33 3.51 3.82 3.49L3.82 3.49L3.82 3.49Q4.31 3.47 4.55 3.47L4.55 3.47L4.55 3.47Q5.82 3.47 6.68 4.08L6.68 4.08L6.68 4.08Q7.53 4.69 7.53 5.81L7.53 5.81L7.53 5.81Q7.53 6.22 7.38 6.57L7.38 6.57L7.38 6.57Q7.24 6.93 7.04 7.15L7.04 7.15L7.04 7.15Q6.83 7.38 6.63 7.54L6.63 7.54L6.63 7.54Q6.43 7.70 6.28 7.79L6.28 7.79L6.28 7.79Q6.13 7.88 6.13 7.90L6.13 7.90L6.13 7.90Q6.13 7.94 6.37 8.00L6.37 8.00L6.37 8.00Q6.61 8.06 6.94 8.21L6.94 8.21L6.94 8.21Q7.28 8.36 7.61 8.61L7.61 8.61L7.61 8.61Q7.94 8.86 8.18 9.36L8.18 9.36L8.18 9.36Q8.41 9.86 8.41 10.53L8.41 10.53L8.41 10.53Q8.41 11.13 8.06 11.82L8.06 11.82L8.06 11.82Q7.71 12.50 7.24 12.82L7.24 12.82L7.24 12.82Q6.62 13.26 6.09 13.40L6.09 13.40L6.09 13.40Q5.56 13.55 4.80 13.55L4.80 13.55L4.80 13.55Q4.24 13.55 3.32 13.47L3.32 13.47L3.32 13.47Q2.39 13.40 2.30 13.40L2.30 13.40L2.30 13.40Q2.14 13.40 1.74 13.43L1.74 13.43L1.74 13.43Q1.34 13.45 1.09 13.45L1.09 13.45L0.90 13.45L0.90 13.45Q0.60 13.45 0.60 13.24L0.60 13.24L0.60 13.24Q0.60 13.05 0.76 13.05L0.76 13.05L0.76 13.05Q0.84 13.05 0.94 13.04L0.94 13.04L0.94 13.04Q1.04 13.03 1.08 13.03L1.08 13.03L1.08 13.03Q1.20 13.03 1.32 12.94L1.32 12.94L1.32 12.94Q1.44 12.85 1.57 12.54L1.57 12.54L1.57 12.54Q1.69 12.22 1.71 11.73L1.71 11.73L1.71 11.73Q1.75 10.82 1.75 7.36L1.75 7.36L1.75 4.98L1.75 4.98Q1.75 4.89 1.72 4.75L1.72 4.75L1.72 4.75Q1.68 4.62 1.57 4.40L1.57 4.40L1.57 4.40Q1.47 4.19 1.20 4.04L1.20 4.04L1.20 4.04Q0.92 3.89 0.52 3.89L0.52 3.89L0.52 3.89Q0.28 3.89 0.28 3.72ZM2.81 12.15L2.81 12.15L2.81 12.15Q2.81 12.99 4.19 12.99L4.19 12.99L4.51 12.99L4.51 12.99Q5.26 12.99 5.71 12.92L5.71 12.92L5.71 12.92Q6.37 12.81 6.80 12.24L6.80 12.24L6.80 12.24Q7.22 11.66 7.22 10.86L7.22 10.86L7.22 10.86Q7.22 10.18 6.97 9.68L6.97 9.68L6.97 9.68Q6.72 9.18 6.40 8.93L6.40 8.93L6.40 8.93Q6.08 8.68 5.63 8.54L5.63 8.54L5.63 8.54Q5.19 8.40 4.95 8.37L4.95 8.37L4.95 8.37Q4.70 8.34 4.48 8.34L4.48 8.34L4.48 8.34Q4.03 8.34 3.75 8.34L3.75 8.34L3.75 8.34Q3.46 8.33 3.38 8.33L3.38 8.33L3.38 8.33Q3.30 8.33 3.25 8.32L3.25 8.32L3.25 8.32Q3.21 8.32 3.18 8.32L3.18 8.32L3.18 8.32Q3.05 8.32 3.00 8.35L3.00 8.35L3.00 8.35Q2.94 8.39 2.89 8.62L2.89 8.62L2.89 8.62Q2.84 8.85 2.83 9.28L2.83 9.28L2.83 9.28Q2.83 9.72 2.83 10.58L2.83 10.58L2.83 10.70L2.83 10.70Q2.83 11.21 2.83 11.54L2.83 11.54L2.83 11.54Q2.83 11.86 2.82 11.99L2.82 11.99L2.82 11.99Q2.81 12.12 2.81 12.15ZM2.90 5.40L2.90 5.81L2.90 5.81Q2.90 6.51 2.91 6.90L2.91 6.90L2.91 6.90Q2.91 7.29 2.94 7.50L2.94 7.50L2.94 7.50Q2.97 7.71 3.00 7.77L3.00 7.77L3.00 7.77Q3.02 7.83 3.08 7.83L3.08 7.83L3.08 7.83Q3.47 7.87 3.79 7.87L3.79 7.87L4.69 7.87L4.69 7.87Q5.57 7.87 6.01 7.41L6.01 7.41L6.01 7.41Q6.45 6.94 6.45 6.22L6.45 6.22L6.45 6.22Q6.45 5.43 5.72 4.70L5.72 4.70L5.72 4.70Q4.98 3.96 3.63 3.96L3.63 3.96L3.63 3.96Q3.19 3.96 3.04 4.22L3.04 4.22L3.04 4.22Q2.90 4.48 2.90 5.40L2.90 5.40ZM15.69 3.81L15.69 3.81L15.69 3.81Q15.69 3.65 15.86 3.61L15.86 3.61L15.86 3.61Q16.02 3.57 16.56 3.57L16.56 3.57L16.56 3.57Q16.65 3.57 16.95 3.58L16.95 3.58L16.95 3.58Q17.25 3.60 17.37 3.60L17.37 3.60L17.37 3.60Q17.53 3.60 17.94 3.59L17.94 3.59L17.94 3.59Q18.35 3.58 18.56 3.58L18.56 3.58L18.56 3.58Q19.26 3.58 19.26 3.75L19.26 3.75L19.26 3.75Q19.26 3.91 18.97 4.01L18.97 4.01L18.97 4.01Q18.68 4.12 18.68 4.24L18.68 4.24L18.68 4.24Q18.68 4.38 18.77 4.61L18.77 4.61L18.77 4.61Q18.86 4.83 18.95 4.97L18.95 4.97L18.95 4.97Q19.04 5.11 19.22 5.38L19.22 5.38L19.22 5.38Q19.40 5.64 19.43 5.70L19.43 5.70L19.43 5.70Q19.91 6.45 20.42 7.14L20.42 7.14L20.42 7.14Q20.93 7.83 21 7.83L21 7.83L21 7.83Q21.08 7.83 21.21 7.66L21.21 7.66L21.21 7.66Q21.34 7.50 21.56 7.13L21.56 7.13L21.56 7.13Q21.78 6.75 21.94 6.52L21.94 6.52L21.94 6.52Q21.98 6.45 22.14 6.22L22.14 6.22L22.14 6.22Q22.30 5.98 22.37 5.88L22.37 5.88L22.37 5.88Q22.43 5.78 22.55 5.58L22.55 5.58L22.55 5.58Q22.68 5.38 22.74 5.27L22.74 5.27L22.74 5.27Q22.79 5.17 22.87 5.02L22.87 5.02L22.87 5.02Q22.95 4.87 22.97 4.77L22.97 4.77L22.97 4.77Q23.00 4.68 23.00 4.59L23.00 4.59L23.00 4.59Q23.00 4.14 22.53 4.03L22.53 4.03L22.53 4.03Q22.47 4.02 22.37 4.00L22.37 4.00L22.37 4.00Q22.26 3.99 22.21 3.98L22.21 3.98L22.21 3.98Q22.16 3.96 22.09 3.93L22.09 3.93L22.09 3.93Q22.02 3.91 21.99 3.86L21.99 3.86L21.99 3.86Q21.97 3.81 21.97 3.74L21.97 3.74L21.97 3.74Q21.97 3.57 22.36 3.57L22.36 3.57L22.36 3.57Q22.43 3.57 22.62 3.58L22.62 3.58L22.62 3.58Q22.81 3.58 22.93 3.58L22.93 3.58L22.93 3.58Q23.25 3.58 23.71 3.59L23.71 3.59L23.71 3.59Q24.16 3.60 24.42 3.60L24.42 3.60L24.42 3.60Q25.10 3.60 25.10 3.81L25.10 3.81L25.10 3.81Q25.10 3.86 25.02 3.91L25.02 3.91L25.02 3.91Q24.93 3.95 24.78 4.02L24.78 4.02L24.78 4.02Q24.63 4.09 24.50 4.19L24.50 4.19L24.50 4.19Q23.93 4.63 22.81 6.31L22.81 6.31L22.81 6.31Q21.70 7.99 21.55 8.19L21.55 8.19L21.55 8.19Q21.32 8.47 21.27 8.81L21.27 8.81L21.27 8.81Q21.21 9.14 21.21 9.95L21.21 9.95L21.21 9.95Q21.21 10.14 21.22 10.73L21.22 10.73L21.22 10.73Q21.22 11.33 21.22 11.58L21.22 11.58L21.22 11.91L21.22 11.91Q21.22 12.38 21.38 12.64L21.38 12.64L21.38 12.64Q21.55 12.91 21.69 12.96L21.69 12.96L21.69 12.96Q21.83 13.01 21.97 13.01L21.97 13.01L21.97 13.01Q21.99 13.01 22.11 13.01L22.11 13.01L22.11 13.01Q22.22 13.02 22.25 13.02L22.25 13.02L22.25 13.02Q22.34 13.02 22.40 13.08L22.40 13.08L22.40 13.08Q22.46 13.15 22.46 13.22L22.46 13.22L22.46 13.22Q22.46 13.36 22.39 13.40L22.39 13.40L22.39 13.40Q22.32 13.44 22.12 13.44L22.12 13.44L22.12 13.44Q22.05 13.44 21.51 13.43L21.51 13.43L21.51 13.43Q20.97 13.43 20.72 13.43L20.72 13.43L20.72 13.43Q20.23 13.43 19.82 13.45L19.82 13.45L19.82 13.45Q19.42 13.48 19.18 13.48L19.18 13.48L19.18 13.48Q18.79 13.48 18.79 13.33L18.79 13.33L18.79 13.33Q18.79 13.20 18.86 13.15L18.86 13.15L18.86 13.15Q18.94 13.10 19.12 13.09L19.12 13.09L19.12 13.09Q19.31 13.08 19.39 13.05L19.39 13.05L19.39 13.05Q19.98 12.87 19.98 12.19L19.98 12.19L19.98 12.19Q19.98 12.11 19.98 11.92L19.98 11.92L19.98 11.92Q19.99 11.73 20.00 11.12L20.00 11.12L20.00 11.12Q20.01 10.50 20.01 9.35L20.01 9.35L20.01 9.35Q20.01 9.13 19.97 8.97L19.97 8.97L19.97 8.97Q19.94 8.81 19.89 8.65L19.89 8.65L19.89 8.65Q19.84 8.50 19.65 8.20L19.65 8.20L19.65 8.20Q19.46 7.91 19.28 7.64L19.28 7.64L19.28 7.64Q19.10 7.36 18.66 6.72L18.66 6.72L18.66 6.72Q18.21 6.08 17.81 5.46L17.81 5.46L17.81 5.46Q17.37 4.80 17.02 4.46L17.02 4.46L17.02 4.46Q16.67 4.12 16.48 4.05L16.48 4.05L16.48 4.05Q16.30 3.99 16.04 3.99L16.04 3.99L16.04 3.99Q15.69 3.99 15.69 3.81ZM42.64 3.72L42.64 3.72L42.64 3.72Q42.64 3.51 42.77 3.51L42.77 3.51L42.77 3.51Q42.81 3.51 42.95 3.52L42.95 3.52L42.95 3.52Q43.09 3.53 43.33 3.53L43.33 3.53L43.33 3.53Q43.61 3.53 44.44 3.52L44.44 3.52L44.44 3.52Q45.28 3.51 45.37 3.51L45.37 3.51L45.37 3.51Q45.70 3.51 46.19 3.49L46.19 3.49L46.19 3.49Q46.68 3.47 46.91 3.47L46.91 3.47L46.91 3.47Q48.19 3.47 49.04 4.08L49.04 4.08L49.04 4.08Q49.90 4.69 49.90 5.81L49.90 5.81L49.90 5.81Q49.90 6.22 49.75 6.57L49.75 6.57L49.75 6.57Q49.60 6.93 49.40 7.15L49.40 7.15L49.40 7.15Q49.20 7.38 48.99 7.54L48.99 7.54L48.99 7.54Q48.79 7.70 48.64 7.79L48.64 7.79L48.64 7.79Q48.50 7.88 48.50 7.90L48.50 7.90L48.50 7.90Q48.50 7.94 48.73 8.00L48.73 8.00L48.73 8.00Q48.97 8.06 49.31 8.21L49.31 8.21L49.31 8.21Q49.64 8.36 49.97 8.61L49.97 8.61L49.97 8.61Q50.30 8.86 50.54 9.36L50.54 9.36L50.54 9.36Q50.78 9.86 50.78 10.53L50.78 10.53L50.78 10.53Q50.78 11.13 50.43 11.82L50.43 11.82L50.43 11.82Q50.08 12.50 49.60 12.82L49.60 12.82L49.60 12.82Q48.99 13.26 48.45 13.40L48.45 13.40L48.45 13.40Q47.92 13.55 47.17 13.55L47.17 13.55L47.17 13.55Q46.61 13.55 45.68 13.47L45.68 13.47L45.68 13.47Q44.76 13.40 44.66 13.40L44.66 13.40L44.66 13.40Q44.51 13.40 44.11 13.43L44.11 13.43L44.11 13.43Q43.71 13.45 43.46 13.45L43.46 13.45L43.26 13.45L43.26 13.45Q42.97 13.45 42.97 13.24L42.97 13.24L42.97 13.24Q42.97 13.05 43.12 13.05L43.12 13.05L43.12 13.05Q43.20 13.05 43.30 13.04L43.30 13.04L43.30 13.04Q43.40 13.03 43.44 13.03L43.44 13.03L43.44 13.03Q43.57 13.03 43.69 12.94L43.69 12.94L43.69 12.94Q43.81 12.85 43.93 12.54L43.93 12.54L43.93 12.54Q44.06 12.22 44.07 11.73L44.07 11.73L44.07 11.73Q44.11 10.82 44.11 7.36L44.11 7.36L44.11 4.98L44.11 4.98Q44.11 4.89 44.08 4.75L44.08 4.75L44.08 4.75Q44.04 4.62 43.94 4.40L43.94 4.40L43.94 4.40Q43.83 4.19 43.56 4.04L43.56 4.04L43.56 4.04Q43.29 3.89 42.88 3.89L42.88 3.89L42.88 3.89Q42.64 3.89 42.64 3.72ZM45.18 12.15L45.18 12.15L45.18 12.15Q45.18 12.99 46.55 12.99L46.55 12.99L46.87 12.99L46.87 12.99Q47.63 12.99 48.08 12.92L48.08 12.92L48.08 12.92Q48.73 12.81 49.16 12.24L49.16 12.24L49.16 12.24Q49.59 11.66 49.59 10.86L49.59 10.86L49.59 10.86Q49.59 10.18 49.34 9.68L49.34 9.68L49.34 9.68Q49.08 9.18 48.76 8.93L48.76 8.93L48.76 8.93Q48.44 8.68 48.00 8.54L48.00 8.54L48.00 8.54Q47.56 8.40 47.31 8.37L47.31 8.37L47.31 8.37Q47.07 8.34 46.84 8.34L46.84 8.34L46.84 8.34Q46.40 8.34 46.11 8.34L46.11 8.34L46.11 8.34Q45.82 8.33 45.74 8.33L45.74 8.33L45.74 8.33Q45.67 8.33 45.62 8.32L45.62 8.32L45.62 8.32Q45.57 8.32 45.54 8.32L45.54 8.32L45.54 8.32Q45.42 8.32 45.36 8.35L45.36 8.35L45.36 8.35Q45.30 8.39 45.25 8.62L45.25 8.62L45.25 8.62Q45.21 8.85 45.20 9.28L45.20 9.28L45.20 9.28Q45.19 9.72 45.19 10.58L45.19 10.58L45.19 10.70L45.19 10.70Q45.19 11.21 45.19 11.54L45.19 11.54L45.19 11.54Q45.19 11.86 45.18 11.99L45.18 11.99L45.18 11.99Q45.18 12.12 45.18 12.15ZM45.26 5.40L45.26 5.81L45.26 5.81Q45.26 6.51 45.27 6.90L45.27 6.90L45.27 6.90Q45.28 7.29 45.30 7.50L45.30 7.50L45.30 7.50Q45.33 7.71 45.36 7.77L45.36 7.77L45.36 7.77Q45.39 7.83 45.44 7.83L45.44 7.83L45.44 7.83Q45.84 7.87 46.16 7.87L46.16 7.87L47.05 7.87L47.05 7.87Q47.94 7.87 48.38 7.41L48.38 7.41L48.38 7.41Q48.82 6.94 48.82 6.22L48.82 6.22L48.82 6.22Q48.82 5.43 48.08 4.70L48.08 4.70L48.08 4.70Q47.35 3.96 45.99 3.96L45.99 3.96L45.99 3.96Q45.56 3.96 45.41 4.22L45.41 4.22L45.41 4.22Q45.26 4.48 45.26 5.40L45.26 5.40ZM58.06 13.33L58.06 13.33L58.06 13.33Q58.06 13.13 58.27 13.06L58.27 13.06L58.27 13.06Q58.72 12.89 59.05 12.31L59.05 12.31L59.05 12.31Q59.39 11.73 60.72 8.83L60.72 8.83L60.72 8.83Q62.09 5.87 63.14 3.63L63.14 3.63L63.14 3.63Q63.24 3.42 63.31 3.36L63.31 3.36L63.31 3.36Q63.39 3.30 63.56 3.30L63.56 3.30L63.56 3.30Q63.69 3.30 63.73 3.36L63.73 3.36L63.73 3.36Q63.77 3.42 63.91 3.82L63.91 3.82L63.91 3.82Q63.99 4.06 64.06 4.23L64.06 4.23L64.06 4.23Q64.12 4.40 64.26 4.77L64.26 4.77L64.26 4.77Q64.40 5.15 64.57 5.56L64.57 5.56L64.57 5.56Q65.02 6.66 66.11 9.22L66.11 9.22L66.11 9.22Q67.21 11.77 67.31 11.98L67.31 11.98L67.31 11.98Q67.55 12.46 67.84 12.71L67.84 12.71L67.84 12.71Q68.14 12.95 68.36 12.97L68.36 12.97L68.36 12.97Q68.57 12.99 68.72 13.04L68.72 13.04L68.72 13.04Q68.87 13.09 68.87 13.26L68.87 13.26L68.87 13.26Q68.87 13.47 68.49 13.47L68.49 13.47L68.49 13.47Q68.33 13.47 67.89 13.43L67.89 13.43L67.89 13.43Q67.44 13.38 67.23 13.38L67.23 13.38L67.23 13.38Q66.96 13.38 66.54 13.41L66.54 13.41L66.54 13.41Q66.12 13.44 65.93 13.44L65.93 13.44L65.93 13.44Q65.49 13.44 65.37 13.40L65.37 13.40L65.37 13.40Q65.25 13.37 65.25 13.24L65.25 13.24L65.25 13.24Q65.25 13.15 65.37 13.08L65.37 13.08L65.37 13.08Q65.48 13.02 65.60 13.00L65.60 13.00L65.60 13.00Q65.73 12.98 65.84 12.87L65.84 12.87L65.84 12.87Q65.95 12.77 65.95 12.59L65.95 12.59L65.95 12.59Q65.95 12.28 65.60 11.33L65.60 11.33L65.60 11.33Q65.25 10.37 65.02 9.93L65.02 9.93L65.02 9.93Q64.89 9.69 64.44 9.69L64.44 9.69L64.44 9.69Q64.37 9.69 63.83 9.70L63.83 9.70L63.83 9.70Q63.28 9.72 62.75 9.72L62.75 9.72L62.01 9.72L62.01 9.72Q61.38 9.72 61.21 9.79L61.21 9.79L61.21 9.79Q61.05 9.86 60.93 10.12L60.93 10.12L60.93 10.12Q60.84 10.30 60.65 10.70L60.65 10.70L60.65 10.70Q60.45 11.10 60.38 11.26L60.38 11.26L60.38 11.26Q60.31 11.41 60.21 11.65L60.21 11.65L60.21 11.65Q60.10 11.90 60.07 12.05L60.07 12.05L60.07 12.05Q60.03 12.19 60.03 12.31L60.03 12.31L60.03 12.31Q60.03 12.63 60.19 12.80L60.19 12.80L60.19 12.80Q60.35 12.96 60.55 12.98L60.55 12.98L60.55 12.98Q60.75 13.01 60.91 13.06L60.91 13.06L60.91 13.06Q61.07 13.12 61.07 13.26L61.07 13.26L61.07 13.26Q61.07 13.36 61.03 13.40L61.03 13.40L61.03 13.40Q60.98 13.45 60.83 13.45L60.83 13.45L60.83 13.45Q60.75 13.45 60.35 13.45L60.35 13.45L60.35 13.45Q59.95 13.44 59.67 13.44L59.67 13.44L59.67 13.44Q59.36 13.44 58.98 13.47L58.98 13.47L58.98 13.47Q58.59 13.50 58.46 13.50L58.46 13.50L58.46 13.50Q58.06 13.50 58.06 13.33ZM61.57 8.71L61.57 8.71L61.57 8.71Q61.57 8.89 61.70 8.93L61.70 8.93L61.70 8.93Q61.82 8.97 62.29 8.97L62.29 8.97L62.72 8.97L64.05 8.96L64.05 8.96Q64.60 8.96 64.60 8.74L64.60 8.74L64.60 8.74Q64.60 8.55 63.91 7.01L63.91 7.01L63.91 7.01Q63.22 5.46 63.04 5.46L63.04 5.46L63.04 5.46Q62.92 5.46 62.24 7.01L62.24 7.01L62.24 7.01Q61.57 8.55 61.57 8.71ZM76.43 3.64L76.43 3.64L76.43 3.64Q76.43 3.51 76.55 3.49L76.55 3.49L76.55 3.49Q76.66 3.47 77.14 3.47L77.14 3.47L78.36 3.47L78.36 3.47Q78.71 3.47 79.65 3.44L79.65 3.44L79.65 3.44Q80.58 3.42 81.09 3.42L81.09 3.42L81.09 3.42Q82.05 3.42 83.02 3.71L83.02 3.71L83.02 3.71Q83.99 4.00 84.80 4.56L84.80 4.56L84.80 4.56Q85.61 5.11 86.11 6.00L86.11 6.00L86.11 6.00Q86.62 6.89 86.62 7.98L86.62 7.98L86.62 7.98Q86.62 8.96 86.48 9.68L86.48 9.68L86.48 9.68Q86.35 10.40 86.04 10.93L86.04 10.93L86.04 10.93Q85.74 11.45 85.43 11.78L85.43 11.78L85.43 11.78Q85.12 12.11 84.59 12.56L84.59 12.56L84.59 12.56Q84.17 12.89 83.37 13.19L83.37 13.19L83.37 13.19Q82.57 13.48 81.73 13.48L81.73 13.48L81.73 13.48Q81.65 13.48 80.30 13.45L80.30 13.45L80.30 13.45Q78.96 13.41 78.37 13.41L78.37 13.41L78.37 13.41Q77.88 13.41 77.46 13.45L77.46 13.45L77.46 13.45Q77.04 13.48 76.97 13.48L76.97 13.48L76.97 13.48Q76.64 13.48 76.64 13.30L76.64 13.30L76.64 13.30Q76.64 13.19 76.69 13.14L76.69 13.14L76.69 13.14Q76.73 13.09 76.89 13.05L76.89 13.05L76.89 13.05Q77.06 13.01 77.13 12.98L77.13 12.98L77.13 12.98Q77.35 12.88 77.54 12.61L77.54 12.61L77.54 12.61Q77.73 12.33 77.73 12.07L77.73 12.07L77.73 12.07Q77.73 11.28 77.73 10.07L77.73 10.07L77.73 10.07Q77.74 8.85 77.74 8.27L77.74 8.27L77.74 8.27Q77.74 7.77 77.73 6.70L77.73 6.70L77.73 6.70Q77.73 5.63 77.73 4.72L77.73 4.72L77.73 4.72Q77.73 4.48 77.50 4.23L77.50 4.23L77.50 4.23Q77.27 3.99 76.99 3.98L76.99 3.98L76.99 3.98Q76.79 3.96 76.70 3.95L76.70 3.95L76.70 3.95Q76.61 3.93 76.52 3.86L76.52 3.86L76.52 3.86Q76.43 3.78 76.43 3.64ZM78.90 11.47L78.90 11.47L78.90 11.47Q78.90 11.73 78.91 11.90L78.91 11.90L78.91 11.90Q78.92 12.07 78.97 12.21L78.97 12.21L78.97 12.21Q79.02 12.35 79.04 12.40L79.04 12.40L79.04 12.40Q79.07 12.46 79.21 12.53L79.21 12.53L79.21 12.53Q79.35 12.60 79.43 12.62L79.43 12.62L79.43 12.62Q79.51 12.64 79.76 12.71L79.76 12.71L79.76 12.71Q80.01 12.78 80.18 12.82L80.18 12.82L80.18 12.82Q80.67 12.96 81.20 12.96L81.20 12.96L81.48 12.96L81.48 12.96Q82.43 12.96 83.10 12.69L83.10 12.69L83.10 12.69Q83.78 12.42 84.39 11.83L84.39 11.83L84.39 11.83Q85.43 10.84 85.43 8.61L85.43 8.61L85.43 8.61Q85.43 7.49 84.99 6.58L84.99 6.58L84.99 6.58Q84.55 5.67 83.83 5.13L83.83 5.13L83.83 5.13Q83.12 4.59 82.29 4.30L82.29 4.30L82.29 4.30Q81.47 4.02 80.63 4.02L80.63 4.02L80.63 4.02Q80.25 4.02 80.07 4.02L80.07 4.02L80.07 4.02Q79.90 4.02 79.67 4.05L79.67 4.05L79.67 4.05Q79.44 4.09 79.36 4.11L79.36 4.11L79.36 4.11Q79.28 4.13 79.17 4.25L79.17 4.25L79.17 4.25Q79.06 4.37 79.04 4.45L79.04 4.45L79.04 4.45Q79.02 4.54 78.98 4.78L78.98 4.78L78.98 4.78Q78.95 5.03 78.95 5.21L78.95 5.21L78.95 5.21Q78.95 5.39 78.95 5.80L78.95 5.80L78.95 5.80Q78.95 6.10 78.93 7.24L78.93 7.24L78.93 7.24Q78.92 8.39 78.92 8.48L78.92 8.48L78.92 8.48Q78.92 9.32 78.91 10.30L78.91 10.30L78.91 10.30Q78.90 11.28 78.90 11.47ZM104.50 3.71L104.50 3.71L104.50 3.71Q104.50 3.51 104.87 3.51L104.87 3.51L104.87 3.51Q104.96 3.51 105.41 3.54L105.41 3.54L105.41 3.54Q105.87 3.56 106.41 3.56L106.41 3.56L106.41 3.56Q106.81 3.56 107.20 3.54L107.20 3.54L107.20 3.54Q107.59 3.51 107.62 3.51L107.62 3.51L107.62 3.51Q107.74 3.51 107.78 3.55L107.78 3.55L107.78 3.55Q107.81 3.58 107.81 3.68L107.81 3.68L107.81 3.68Q107.81 3.77 107.51 3.92L107.51 3.92L107.51 3.92Q107.21 4.07 107.21 4.34L107.21 4.34L107.21 4.34Q107.21 4.47 107.27 4.65L107.27 4.65L107.27 4.65Q107.32 4.83 107.49 5.22L107.49 5.22L107.49 5.22Q107.66 5.61 107.85 6.03L107.85 6.03L107.85 6.03Q108.04 6.45 108.43 7.33L108.43 7.33L108.43 7.33Q108.82 8.20 109.20 9.07L109.20 9.07L109.20 9.07Q109.30 9.30 109.49 9.74L109.49 9.74L109.49 9.74Q109.68 10.18 109.80 10.46L109.80 10.46L109.80 10.46Q109.91 10.74 110.05 11.05L110.05 11.05L110.05 11.05Q110.19 11.37 110.29 11.52L110.29 11.52L110.29 11.52Q110.38 11.68 110.42 11.68L110.42 11.68L110.42 11.68Q110.47 11.68 110.87 10.81L110.87 10.81L110.87 10.81Q111.26 9.94 111.57 9.17L111.57 9.17L111.57 9.17Q111.62 9.04 111.70 8.89L111.70 8.89L111.70 8.89Q111.78 8.74 111.81 8.63L111.81 8.63L111.81 8.63Q111.85 8.53 111.85 8.41L111.85 8.41L111.85 8.41Q111.85 8.25 111.01 6.36L111.01 6.36L111.01 6.36Q110.17 4.48 109.93 4.21L109.93 4.21L109.93 4.21Q109.87 4.14 109.82 4.10L109.82 4.10L109.82 4.10Q109.76 4.06 109.71 4.02L109.71 4.02L109.71 4.02Q109.66 3.99 109.63 3.97L109.63 3.97L109.63 3.97Q109.59 3.95 109.54 3.94L109.54 3.94L109.54 3.94Q109.48 3.93 109.46 3.93L109.46 3.93L109.46 3.93Q109.44 3.93 109.38 3.93L109.38 3.93L109.38 3.93Q109.31 3.92 109.30 3.92L109.30 3.92L109.30 3.92Q108.91 3.88 108.82 3.84L108.82 3.84L108.82 3.84Q108.74 3.81 108.74 3.70L108.74 3.70L108.74 3.70Q108.74 3.50 109.14 3.50L109.14 3.50L109.14 3.50Q109.23 3.50 109.69 3.53L109.69 3.53L109.69 3.53Q110.15 3.56 110.68 3.56L110.68 3.56L110.68 3.56Q110.71 3.56 111.06 3.53L111.06 3.53L111.06 3.53Q111.41 3.50 111.61 3.50L111.61 3.50L111.61 3.50Q112.03 3.50 112.03 3.61L112.03 3.61L112.03 3.61Q112.03 3.70 111.87 3.78L111.87 3.78L111.87 3.78Q111.72 3.86 111.57 4.00L111.57 4.00L111.57 4.00Q111.43 4.13 111.43 4.33L111.43 4.33L111.43 4.33Q111.43 4.59 111.86 5.57L111.86 5.57L111.86 5.57Q111.89 5.63 112.05 6.03L112.05 6.03L112.05 6.03Q112.21 6.44 112.34 6.71L112.34 6.71L112.34 6.71Q112.46 6.99 112.52 6.99L112.52 6.99L112.52 6.99Q112.63 6.99 113.08 5.76L113.08 5.76L113.08 5.76Q113.53 4.54 113.53 4.31L113.53 4.31L113.53 4.31Q113.53 4.06 113.32 3.96L113.32 3.96L113.32 3.96Q113.11 3.85 112.90 3.80L112.90 3.80L112.90 3.80Q112.69 3.75 112.69 3.64L112.69 3.64L112.69 3.64Q112.69 3.49 112.99 3.49L112.99 3.49L112.99 3.49Q113.08 3.49 113.41 3.50L113.41 3.50L113.41 3.50Q113.75 3.51 113.89 3.51L113.89 3.51L114.13 3.51L114.13 3.51Q114.32 3.51 114.87 3.47L114.87 3.47L115.00 3.47L115.00 3.47Q115.18 3.47 115.18 3.61L115.18 3.61L115.18 3.61Q115.18 3.75 114.91 3.84L114.91 3.84L114.91 3.84Q114.65 3.92 114.55 4.02L114.55 4.02L114.55 4.02Q114.32 4.24 114.16 4.66L114.16 4.66L114.16 4.66Q113.86 5.38 113.46 6.33L113.46 6.33L113.46 6.33Q113.04 7.31 112.97 7.50L112.97 7.50L112.97 7.50Q112.90 7.70 112.90 7.85L112.90 7.85L112.90 7.85Q112.90 7.97 113.75 9.87L113.75 9.87L113.75 9.87Q114.60 11.77 114.76 11.77L114.76 11.77L114.76 11.77Q114.93 11.77 116.39 8.24L116.39 8.24L116.39 8.24Q117.85 4.70 117.85 4.35L117.85 4.35L117.85 4.35Q117.85 4.13 117.69 4.01L117.69 4.01L117.69 4.01Q117.53 3.89 117.33 3.87L117.33 3.87L117.33 3.87Q117.14 3.85 116.98 3.80L116.98 3.80L116.98 3.80Q116.82 3.75 116.82 3.64L116.82 3.64L116.82 3.64Q116.82 3.54 116.86 3.52L116.86 3.52L116.86 3.52Q116.90 3.50 117.08 3.50L117.08 3.50L117.08 3.50Q117.12 3.50 117.40 3.51L117.40 3.51L117.40 3.51Q117.68 3.51 117.96 3.51L117.96 3.51L117.96 3.51Q118.22 3.51 118.53 3.50L118.53 3.50L118.53 3.50Q118.85 3.49 119.21 3.49L119.21 3.49L119.21 3.49Q119.49 3.49 119.49 3.68L119.49 3.68L119.49 3.68Q119.49 3.78 119.41 3.84L119.41 3.84L119.41 3.84Q119.34 3.89 119.18 3.98L119.18 3.98L119.18 3.98Q119.03 4.06 118.92 4.17L118.92 4.17L118.92 4.17Q118.85 4.24 118.80 4.31L118.80 4.31L118.80 4.31Q118.75 4.38 118.69 4.49L118.69 4.49L118.69 4.49Q118.64 4.59 118.60 4.66L118.60 4.66L118.60 4.66Q118.57 4.73 118.49 4.91L118.49 4.91L118.49 4.91Q118.41 5.08 118.37 5.18L118.37 5.18L118.37 5.18Q117.29 7.59 115.96 10.58L115.96 10.58L115.96 10.58Q114.90 13.01 114.70 13.41L114.70 13.41L114.70 13.41Q114.51 13.82 114.39 13.82L114.39 13.82L114.39 13.82Q114.32 13.82 114.23 13.64L114.23 13.64L114.23 13.64Q114.13 13.47 113.95 13.05L113.95 13.05L113.95 13.05Q113.78 12.64 113.75 12.57L113.75 12.57L113.75 12.57Q113.61 12.26 113.38 11.72L113.38 11.72L113.38 11.72Q113.15 11.17 112.99 10.79L112.99 10.79L112.99 10.79Q112.83 10.42 112.66 10.02L112.66 10.02L112.66 10.02Q112.49 9.63 112.38 9.43L112.38 9.43L112.38 9.43Q112.27 9.23 112.22 9.23L112.22 9.23L112.22 9.23Q112.08 9.23 111.28 11.16L111.28 11.16L111.28 11.16Q110.47 13.09 110.42 13.31L110.42 13.31L110.42 13.31Q110.40 13.37 110.38 13.43L110.38 13.43L110.38 13.43Q110.36 13.48 110.35 13.52L110.35 13.52L110.35 13.52Q110.33 13.57 110.32 13.61L110.32 13.61L110.32 13.61Q110.31 13.65 110.29 13.68L110.29 13.68L110.29 13.68Q110.28 13.71 110.27 13.73L110.27 13.73L110.27 13.73Q110.26 13.76 110.25 13.78L110.25 13.78L110.25 13.78Q110.24 13.80 110.22 13.82L110.22 13.82L110.22 13.82Q110.21 13.83 110.19 13.84L110.19 13.84L110.19 13.84Q110.18 13.85 110.17 13.85L110.17 13.85L110.17 13.85Q110.15 13.86 110.12 13.86L110.12 13.86L110.12 13.86Q110.00 13.86 109.82 13.46L109.82 13.46L109.82 13.46Q109.63 13.06 109.16 11.89L109.16 11.89L109.16 11.89Q108.68 10.72 108.19 9.65L108.19 9.65L108.19 9.65Q107.38 7.87 106.47 5.63L106.47 5.63L106.47 5.63Q106.20 4.96 105.90 4.57L105.90 4.57L105.90 4.57Q105.59 4.19 105.35 4.09L105.35 4.09L105.35 4.09Q105.11 3.99 104.92 3.98L104.92 3.98L104.92 3.98Q104.72 3.96 104.61 3.92L104.61 3.92L104.61 3.92Q104.50 3.88 104.50 3.71ZM127.04 8.69L127.04 8.69L127.04 8.69Q127.04 6.34 128.45 4.84L128.45 4.84L128.45 4.84Q129.86 3.33 132.45 3.33L132.45 3.33L132.45 3.33Q133.66 3.33 134.62 3.68L134.62 3.68L134.62 3.68Q135.59 4.03 136.15 4.54L136.15 4.54L136.15 4.54Q136.71 5.05 137.09 5.71L137.09 5.71L137.09 5.71Q137.47 6.37 137.61 6.92L137.61 6.92L137.61 6.92Q137.75 7.48 137.75 7.95L137.75 7.95L137.75 7.95Q137.75 9.86 137.00 11.16L137.00 11.16L137.00 11.16Q136.26 12.47 135.05 13.07L135.05 13.07L135.05 13.07Q133.84 13.66 132.26 13.66L132.26 13.66L132.26 13.66Q130.59 13.66 129.38 12.94L129.38 12.94L129.38 12.94Q128.17 12.21 127.60 11.10L127.60 11.10L127.60 11.10Q127.04 10.00 127.04 8.69ZM128.27 7.98L128.27 7.98L128.27 7.98Q128.27 8.54 128.42 9.19L128.42 9.19L128.42 9.19Q128.58 9.84 128.93 10.54L128.93 10.54L128.93 10.54Q129.28 11.23 129.77 11.78L129.77 11.78L129.77 11.78Q130.27 12.33 131.03 12.69L131.03 12.69L131.03 12.69Q131.80 13.05 132.71 13.05L132.71 13.05L132.71 13.05Q133.18 13.05 133.71 12.90L133.71 12.90L133.71 12.90Q134.23 12.75 134.75 12.45L134.75 12.45L134.75 12.45Q135.27 12.14 135.67 11.70L135.67 11.70L135.67 11.70Q136.08 11.26 136.34 10.62L136.34 10.62L136.34 10.62Q136.60 9.98 136.60 9.24L136.60 9.24L136.60 9.24Q136.60 6.71 135.27 5.30L135.27 5.30L135.27 5.30Q133.94 3.89 131.98 3.89L131.98 3.89L131.98 3.89Q130.44 3.89 129.35 4.93L129.35 4.93L129.35 4.93Q128.27 5.96 128.27 7.98ZM145.64 3.71L145.64 3.71L145.64 3.71Q145.64 3.46 146.02 3.46L146.02 3.46L146.02 3.46Q146.08 3.46 146.20 3.47L146.20 3.47L146.20 3.47Q146.33 3.49 146.40 3.49L146.40 3.49L146.40 3.49Q146.54 3.49 146.92 3.51L146.92 3.51L146.92 3.51Q147.31 3.54 147.62 3.54L147.62 3.54L147.62 3.54Q148.05 3.54 148.54 3.51L148.54 3.51L148.54 3.51Q149.03 3.49 149.09 3.49L149.09 3.49L149.09 3.49Q149.32 3.49 149.32 3.63L149.32 3.63L149.32 3.63Q149.32 3.82 149.16 3.88L149.16 3.88L149.16 3.88Q148.99 3.95 148.79 3.97L148.79 3.97L148.79 3.97Q148.58 3.99 148.39 4.28L148.39 4.28L148.39 4.28Q148.20 4.56 148.18 5.14L148.18 5.14L148.18 5.14Q148.15 5.68 148.11 8.19L148.11 8.19L148.11 8.19Q148.06 10.70 148.06 10.99L148.06 10.99L148.06 11.55L148.06 11.55Q148.06 12.56 148.40 12.66L148.40 12.66L148.40 12.66Q148.75 12.77 149.00 12.77L149.00 12.77L149.00 12.77Q150.05 12.77 150.84 12.67L150.84 12.67L150.84 12.67Q151.63 12.57 152.03 12.42L152.03 12.42L152.03 12.42Q152.43 12.28 152.70 12.10L152.70 12.10L152.70 12.10Q152.96 11.93 153.04 11.78L153.04 11.78L153.04 11.78Q153.12 11.63 153.20 11.54L153.20 11.54L153.20 11.54Q153.27 11.44 153.36 11.44L153.36 11.44L153.36 11.44Q153.52 11.44 153.52 11.68L153.52 11.68L153.52 11.68Q153.52 12.28 152.92 12.89L152.92 12.89L152.92 12.89Q152.32 13.51 151.87 13.51L151.87 13.51L151.87 13.51Q150.86 13.51 149.60 13.44L149.60 13.44L149.60 13.44Q148.33 13.37 148.02 13.37L148.02 13.37L148.02 13.37Q147.63 13.37 147.12 13.43L147.12 13.43L147.12 13.43Q146.61 13.48 146.27 13.48L146.27 13.48L146.27 13.48Q145.87 13.48 145.87 13.31L145.87 13.31L145.87 13.31Q145.87 13.22 145.94 13.15L145.94 13.15L145.94 13.15Q146.02 13.09 146.09 13.09L146.09 13.09L146.09 13.09Q146.30 13.09 146.50 12.95L146.50 12.95L146.50 12.95Q146.75 12.75 146.86 12.23L146.86 12.23L146.86 12.23Q146.97 11.70 146.97 10.21L146.97 10.21L146.97 8.47L146.97 8.47Q146.97 8.09 146.99 7.29L146.99 7.29L146.99 7.29Q147.01 6.50 147.01 6.05L147.01 6.05L147.01 6.05Q147.01 5.67 146.99 4.77L146.99 4.77L146.99 4.77Q146.97 4.37 146.64 4.14L146.64 4.14L146.64 4.14Q146.30 3.92 145.85 3.91L145.85 3.91L145.85 3.91Q145.71 3.91 145.68 3.86L145.68 3.86L145.68 3.86Q145.64 3.81 145.64 3.71ZM161.08 3.68L161.08 3.68L161.08 3.68Q161.08 3.64 161.11 3.60L161.11 3.60L161.11 3.60Q161.13 3.56 161.22 3.50L161.22 3.50L161.22 3.50Q161.31 3.44 161.45 3.44L161.45 3.44L161.83 3.44L161.83 3.44Q162.16 3.44 162.91 3.49L162.91 3.49L162.91 3.49Q163.66 3.53 164.86 3.53L164.86 3.53L164.86 3.53Q165.86 3.53 166.63 3.49L166.63 3.49L166.63 3.49Q167.40 3.46 168.04 3.46L168.04 3.46L168.04 3.46Q168.28 3.46 168.28 3.79L168.28 3.79L168.28 3.79Q168.28 3.92 168.25 4.11L168.25 4.11L168.25 4.11Q168.22 4.30 168.17 4.61L168.17 4.61L168.17 4.61Q168.11 4.93 168.08 5.22L168.08 5.22L168.08 5.22Q168.06 5.50 167.87 5.50L167.87 5.50L167.87 5.50Q167.68 5.50 167.68 5.22L167.68 5.22L167.68 5.22Q167.68 4.30 167.03 4.26L167.03 4.26L167.03 4.26Q164.92 4.09 164.51 4.09L164.51 4.09L164.51 4.09Q163.88 4.09 163.74 4.24L163.74 4.24L163.74 4.24Q163.59 4.40 163.58 4.87L163.58 4.87L163.58 4.87Q163.58 4.94 163.58 4.98L163.58 4.98L163.58 4.98Q163.53 5.74 163.53 7.32L163.53 7.32L163.53 7.32Q163.53 8.01 163.79 8.02L163.79 8.02L163.79 8.02Q163.86 8.02 163.98 8.03L163.98 8.03L163.98 8.03Q164.09 8.04 164.14 8.04L164.14 8.04L164.14 8.04Q164.23 8.04 164.43 8.03L164.43 8.03L164.43 8.03Q164.63 8.02 164.74 8.02L164.74 8.02L165.17 8.02L165.17 8.02Q166.01 8.02 166.29 7.97L166.29 7.97L166.29 7.97Q166.56 7.92 166.78 7.77L166.78 7.77L166.78 7.77Q166.91 7.69 166.98 7.57L166.98 7.57L166.98 7.57Q167.05 7.46 167.08 7.31L167.08 7.31L167.08 7.31Q167.10 7.15 167.15 7.08L167.15 7.08L167.15 7.08Q167.19 7.01 167.31 7.01L167.31 7.01L167.31 7.01Q167.44 7.01 167.47 7.06L167.47 7.06L167.47 7.06Q167.50 7.10 167.50 7.24L167.50 7.24L167.50 7.24Q167.50 7.34 167.43 7.73L167.43 7.73L167.43 7.73Q167.37 8.12 167.37 8.40L167.37 8.40L167.37 8.40Q167.37 8.67 167.42 9.05L167.42 9.05L167.42 9.05Q167.47 9.44 167.47 9.55L167.47 9.55L167.47 9.55Q167.47 9.77 167.42 9.83L167.42 9.83L167.42 9.83Q167.37 9.90 167.27 9.90L167.27 9.90L167.27 9.90Q167.03 9.90 166.98 9.55L166.98 9.55L166.98 9.55Q166.98 9.52 166.96 9.42L166.96 9.42L166.96 9.42Q166.95 9.32 166.94 9.28L166.94 9.28L166.94 9.28Q166.94 9.24 166.91 9.16L166.91 9.16L166.91 9.16Q166.88 9.09 166.85 9.04L166.85 9.04L166.85 9.04Q166.82 9.00 166.78 8.95L166.78 8.95L166.78 8.95Q166.74 8.90 166.67 8.88L166.67 8.88L166.67 8.88Q166.47 8.79 165.97 8.74L165.97 8.74L165.97 8.74Q165.47 8.68 165.31 8.68L165.31 8.68L164.09 8.68L164.09 8.68Q163.52 8.68 163.52 8.95L163.52 8.95L163.52 8.95Q163.52 9.35 163.51 9.96L163.51 9.96L163.51 9.96Q163.49 10.57 163.49 10.96L163.49 10.96L163.49 10.96Q163.49 11.06 163.49 11.25L163.49 11.25L163.49 11.25Q163.48 11.44 163.48 11.52L163.48 11.52L163.48 11.52Q163.48 11.80 163.53 12.08L163.53 12.08L163.53 12.08Q163.59 12.36 163.86 12.67L163.86 12.67L163.86 12.67Q164.14 12.98 164.60 12.98L164.60 12.98L164.60 12.98Q165.02 12.98 165.02 13.23L165.02 13.23L165.02 13.23Q165.02 13.27 164.99 13.33L164.99 13.33L164.99 13.33Q164.96 13.38 164.86 13.44L164.86 13.44L164.86 13.44Q164.75 13.50 164.58 13.50L164.58 13.50L164.58 13.50Q164.36 13.50 163.88 13.44L163.88 13.44L163.88 13.44Q163.39 13.38 163.23 13.38L163.23 13.38L163.23 13.38Q162.83 13.38 162.35 13.43L162.35 13.43L162.35 13.43Q161.87 13.47 161.53 13.47L161.53 13.47L161.53 13.47Q161.25 13.47 161.25 13.31L161.25 13.31L161.25 13.31Q161.25 13.13 161.32 13.09L161.32 13.09L161.32 13.09Q161.38 13.05 161.85 12.88L161.85 12.88L161.85 12.88Q162.22 12.75 162.30 12.13L162.30 12.13L162.30 12.13Q162.39 11.51 162.40 9.60L162.40 9.60L162.40 9.60Q162.40 8.86 162.40 8.44L162.40 8.44L162.40 8.44Q162.40 8.06 162.42 7.26L162.42 7.26L162.42 7.26Q162.44 6.45 162.44 6.01L162.44 6.01L162.44 5.19L162.44 5.19Q162.44 4.27 161.78 3.96L161.78 3.96L161.78 3.96Q161.69 3.92 161.55 3.90L161.55 3.90L161.55 3.90Q161.41 3.88 161.32 3.88L161.32 3.88L161.32 3.88Q161.22 3.88 161.15 3.83L161.15 3.83L161.15 3.83Q161.08 3.78 161.08 3.68Z"></path></g></svg>