<svg data-v-423bf9ae="" xmlns="http://www.w3.org/2000/svg" viewBox="0 0 30.955414012738856 60" class="icon"><!----><!----><!----><!----><g data-v-423bf9ae="" id="a0c3cfbd-1c62-4663-860b-ca49909f3921" transform="matrix(0.3821656050955414,0,0,0.3821656050955414,-6.496815383813946,-7.261146496815286)" stroke="none" fill="black"><path d="M97.953 176H17v-4l2-1.051V53h-1.976L17 44l2-1v-5h3v-4l27-5a3 3 0 0 0 3-3h2v-6l1-1h5l1 1v6h1.955A3.046 3.046 0 0 0 66 29a4390.57 4390.57 0 0 1 23.952 4.472c.834.159 1.646.44 2.573.694v3.769l2.772.272v4.612l2.534.558v9.761c-.107.08-.185.19-.276.2-2.178.282-2.18.28-2.18 2.589 0 24.916.208 63.257.625 115.022L98 172l-.047 4zM57 57v112h2V57h-2zm-2-36v5h5v-5h-5zM27 57v10h6V57h-6zm39 0v10h6V57h-6zM27 85v23h22V85H27zm39 0v23h22V85H66zm2 2h18v19H68V87zm-41 27v23h22v-23H27zm2 2h18v19H29v-19zm37-2v23h22v-23H66zm2 2h18v19H68v-19zm-41 27v23h22v-23H27zm2 2h18v19H29v-19zm37-2v23h22v-23H66zm2 2h18v19H68v-19zM35 57v10h6V57h-6zm39 0v10h6V57h-6zm-31 0v10h6V57h-6zm-22-5h73v-8H21v8zm2-6h69v4H23v-4zm59 11v10h6V57h-6zM27 69v10h6V69h-6zm39 0v10h6V69h-6zm-31 0v10h6V69h-6zm39 0v10h6V69h-6zm-31 0v10h6V69h-6zm39 0v10h6V69h-6z"></path></g><!----></svg>